<svg xmlns="http://www.w3.org/2000/svg" viewBox="0 0 800 500">
  <defs>
    <linearGradient id="bg1" x1="0%" y1="0%" x2="100%" y2="100%">
      <stop offset="0%" style="stop-color:#0b4f66"/>
      <stop offset="100%" style="stop-color:#056e85"/>
    </linearGradient>
  </defs>
  <rect width="800" height="500" fill="url(#bg1)"/>
  <g fill="rgba(255,255,255,0.08)">
    <circle cx="200" cy="150" r="180"/>
    <circle cx="600" cy="400" r="120"/>
  </g>
  <g stroke="rgba(255,255,255,0.15)" stroke-width="2" fill="none">
    <path d="M0 350 Q200 300 400 350 Q600 400 800 350 L800 500 L0 500 Z"/>
    <path d="M0 400 Q200 360 400 400 Q600 440 800 400" stroke-width="1.5"/>
  </g>
  <g transform="translate(400,220)" text-anchor="middle" font-family="system-ui,sans-serif">
    <rect x="-80" y="-60" width="160" height="120" rx="16" fill="rgba(255,255,255,0.12)" stroke="rgba(255,255,255,0.2)" stroke-width="2"/>
    <rect x="-40" y="-40" width="80" height="60" rx="8" fill="rgba(255,255,255,0.15)"/>
    <rect x="-20" y="-32" width="40" height="6" rx="3" fill="rgba(255,255,255,0.3)"/>
    <rect x="-20" y="-20" width="40" height="6" rx="3" fill="rgba(255,255,255,0.3)"/>
    <rect x="-20" y="-8" width="40" height="6" rx="3" fill="rgba(255,255,255,0.3)"/>
    <rect x="-35" y="28" width="70" height="8" rx="4" fill="rgba(255,255,255,0.15)"/>
    <text y="80" fill="rgba(255,255,255,0.5)" font-size="13">Municipal WWTP Upgrade</text>
  </g>
</svg>
